<svg id="Layer_1" viewBox="0 0 512 512" xmlns="http://www.w3.org/2000/svg" data-name="Layer 1"><path d="m307.5532 55.1167h-103.1064c-83.5952 0-151.4868 67.17-151.4868 149.8779v102.0108c0 82.7075 67.8916 149.8779 151.4868 149.8779h103.1064c83.5952 0 151.4868-67.17 151.4868-149.8779v-102.0108c0-82.7075-67.8916-149.8779-151.4868-149.8779zm-19.4262 234.0415c16.0659 10.6172 11.5615 25.5625 13.8017 70.1123.4317 8.583 13.8018 12.8262 12.939 15.3906 0 2.5655-10.3516 2.5655-15.5274.8555-13.8017-5.1309-12.0764-16.2461-12.0764-16.2461-1.0039-35.84-.06-47.0264-6.0378-47.0264v50.4459c0 11.1153 7.7629 14.5362 7.7629 18.8116 0 6.84-14.6638-.8555-18.9775-5.1309-3.2815-3.2524-4.8074-8.0518-5.5054-13.3867-.7436-5.6841-.5325-6.3687-.5325-52.4512h-4.3136s1.7253 51.3018-2.5874 60.708c-6.0389 11.9707-22.428 15.3906-22.428 10.2608 0-4.2754 3.45-2.5665 6.0378-11.1163 1.7251-6.84.8631-58.997.8631-58.997s-5.1755 3.4217-5.1755 12.8265v37.62c0 10.2617-13.802 15.3916-20.7029 15.3916-3.45 0-7.7639 0-7.7639-1.71 0-4.2754 12.94-6.84 12.94-16.2461v-28.2156a140.6771 140.6771 0 0 1 -15.5271.8555c-23.291 0-30.1919-14.5352-33.6426-22.23-4.3125-11.1152-10.3513-15.3916-16.3891-19.666-3.4505-2.5655-4.3135-5.1309 0-5.9854 19.84-4.2754 24.8984 22.628 38.8174 26.5049 10.2734 2.8618 22.4277 1.7109 28.4665-2.5644a26.3063 26.3063 0 0 1 11.2136-18.8106c-96.6738-9.5815-79.03-93.1484-58.6577-118.8486-6.9011-24.7959 2.5882-41.8965 2.5882-41.8965s14.664-2.5654 43.1308 17.1006c15.5271-6.84 56.07-6.84 75.0471-1.71 12.0765-7.6953 33.6424-18.81 42.2686-15.3906 2.5874 3.42 7.7629 14.5351 3.45 38.4765 52.0622 103.2199-22.0652 119.0747-53.4819 122.2681z" fill="#595959"/><path d="m338.1587 128.4131c-8.6262-3.42-30.1921 7.6953-42.2686 15.3906-18.9775-5.13-59.52-5.13-75.0471 1.71-28.4668-19.666-43.1308-17.1006-43.1308-17.1006s-9.4893 17.1006-2.5882 41.8965c-20.3725 25.7-38.0161 109.2671 58.6577 118.8486a26.3063 26.3063 0 0 0 -11.2136 18.8106c-6.0388 4.2753-18.1931 5.4262-28.4665 2.5644-13.919-3.8769-18.9776-30.78-38.8174-26.5049-4.3135.8545-3.4505 3.42 0 5.9854 6.0378 4.2744 12.0766 8.5508 16.3891 19.666 3.4507 7.6953 10.3516 22.23 33.6426 22.23a140.6771 140.6771 0 0 0 15.5271-.8555v28.2158c0 9.4063-12.94 11.9707-12.94 16.2461 0 1.71 4.3135 1.71 7.7639 1.71 6.9009 0 20.7029-5.13 20.7029-15.3916v-37.62c0-9.4052 5.1756-12.8261 5.1756-12.8261s.862 52.1572-.8631 58.997c-2.5874 8.55-6.0378 6.8409-6.0378 11.1163 0 5.13 16.3891 1.71 22.428-10.2608 4.3127-9.4062 2.5874-60.708 2.5874-60.708h4.3134c0 46.0825-.2111 46.7671.5325 52.4512.698 5.3349 2.2239 10.1343 5.5054 13.3867 4.3137 4.2754 18.9775 11.9707 18.9775 5.1309 0-4.2754-7.7629-7.6963-7.7629-18.8116v-50.446c5.9778 0 5.0339 11.1866 6.0378 47.0264 0 0-1.7253 11.1152 12.0764 16.2461 5.1758 1.71 15.5274 1.71 15.5274-.8555.8628-2.5644-12.5073-6.8076-12.939-15.3906-2.24-44.55 2.2642-59.4951-13.8017-70.1123 31.4167-3.1934 105.5441-19.0478 53.4821-122.2686 4.3128-23.9414-.8627-35.0566-3.4501-38.4765z" fill="#fff"/><g fill="#1d1d1b"><path d="m362.9876 206.9264-11.5854 2.1421c7.3042 32.0766.5441 67.6265-63.772 74.168a6.0049 6.0049 0 0 0 -2.7009 10.9746c12.9216 8.5376 8.8418 20.166 11.1171 65.4082a16.066 16.066 0 0 0 4.21 9.7968c-7.035-3.1455-7.05-8.0546-6.9432-9.2314.0425-.2212-.3747-34.2183-1.5307-41.9561-2.42-16.2026-16.4466-13.7441-16.4466-5.9375v50.4463a25.4389 25.4389 0 0 0 3.0821 12.3711c-3.8682-2.28-6.7063-4.0937-7.8528-12.8564-.6831-5.2212-.4817-5.97-.4817-51.6719a6 6 0 0 0 -6-6h-4.3135a6.0053 6.0053 0 0 0 -5.9966 6.2012c.8016 23.8584.26 52.664-2.0058 57.9179a17.4218 17.4218 0 0 1 -6.3963 6.7022 29.7871 29.7871 0 0 0 1.2391-3.501c1.781-7.0625 1.25-48.1416 1.0444-60.5644a6.0065 6.0065 0 0 0 -9.3069-4.9063c-.8054.5322-7.8682 5.5537-7.8682 17.832v37.62c0 3.24-3.4484 5.96-7.2983 7.625a15.6114 15.6114 0 0 0 3.7715-10.19v-28.2161a6.0046 6.0046 0 0 0 -6.7356-5.9551 135.975 135.975 0 0 1 -14.7915.8106c-24.8418 0-26.2927-17.6-32.4263-27.1113 5.3985 6.6757 10.73 15.0434 19.6018 17.5156 12.1175 3.374 25.91 1.956 33.5437-3.4483a5.9985 5.9985 0 0 0 2.5027-4.2949 20.29 20.29 0 0 1 8.5523-14.4062 6.005 6.005 0 0 0 -2.7158-10.9766c-91.1724-9.0376-72.4275-86.5962-54.5479-109.15a5.9992 5.9992 0 0 0 1.0784-5.3359c-4.5466-16.3379-1.3454-28.7686.7078-34.2774 5.2422.5215 17.3037 3.2334 35.8208 16.0254a6.0016 6.0016 0 0 0 5.8293.5547c14.3889-6.3389 53.4746-6.1631 71.0623-1.4092a6.004 6.004 0 0 0 4.79-.7314c15.3252-9.7647 29.5879-15.2715 35.2551-15.1387 1.759 3.5967 4.7634 13.0674 1.335 32.1016a6.0011 6.0011 0 0 0 .5478 3.7656 193.5856 193.5856 0 0 1 13.23 32.4575l11.1934-3.8227a195.1408 195.1408 0 0 0 -12.82-32.2588c4.2146-25.67-1.9885-37.31-4.9116-41.1748a6.0079 6.0079 0 0 0 -2.5742-1.959c-11.9824-4.7471-35.6729 8.4853-45.5059 14.5332-19.6916-4.501-55.5053-4.5166-73.24 1.4277-27.9636-18.5683-43.2488-16.59-44.9463-16.2929a5.999 5.999 0 0 0 -4.2124 2.999c-.42.7578-9.8728 18.2226-3.867 43.5283-21.7226 30.9463-32.8837 109.3154 52.83 124.4922a31.8835 31.8835 0 0 0 -4.3406 10.6474c-21.1824 9.1143-31.2044-8.2592-32.4338-9.8378-6.4012-8.2207-15.1668-19.4815-30.587-16.1788-7.6462 1.5406-11.6316 9.7852-2.3637 16.6768 5.6316 4.0957 10.6079 7.3091 14.3755 17.0195 9.7751 25.4663 32.3757 26.0606 39.2363 26.0606 3.5779 0 6.8608-.14 9.5271-.31v21.6709c0 5.5151-12.94 7.47-12.94 16.2461 0 9.4517 15.9963 9.5527 26.8176 4.5928-.8281 7.3476 5.5691 9.1211 6.5979 9.3662 7.6746 1.8252 20.5742-4.0361 26.4851-14.3682 5.2593 10.3262 21.6482 17.06 28.0681 14.3838 4.7742-1.9907 5.385-6.72 5.0257-9.3281 6.5566 3.03 18.23 3.6772 22.9236.2861.2143-.1553 8.6674-6.1816-3.2422-14.5273-2.6038-1.8233-6.5386-4.58-6.658-6.9531-1.79-35.5914.8206-53.2286-7.0122-65.5323 64.3967-11.5235 69.3318-53.0205 61.9694-86.5571z"/><path d="m413.5728 106.5757 8.3525-8.6245q-4.1476-4.34-8.6167-8.3623l-8.3438 8.6333q4.4773 3.999 8.608 8.3535z"/><path d="m427.8052 104.4629-9.4 7.4614a142.3046 142.3046 0 0 1 34.6347 93.07v102.0111c0 79.3349-65.2646 143.8779-145.4863 143.8779h-103.1063a145.8293 145.8293 0 0 1 -129.1211-77.6357l-10.3672 6.0551a157.8426 157.8426 0 0 0 139.4883 83.5806h103.1064c86.8379 0 157.4863-69.9268 157.4863-155.8779v-102.0108a154.2409 154.2409 0 0 0 -37.2348-100.5317z"/><path d="m58.96 307.0054v-102.0108c0-79.3349 65.2656-143.8779 145.4873-143.8779h103.1064a145.7951 145.7951 0 0 1 91.938 32.4561l7.1338-9.6509a157.7341 157.7341 0 0 0 -99.0718-34.8052h-103.1064c-86.8389 0-157.4873 69.9268-157.4873 155.8779v102.0108a153.6327 153.6327 0 0 0 14.09 64.4218l11.1-4.5922a141.7 141.7 0 0 1 -13.19-59.8296z"/></g></svg>