<svg enable-background="new 0 0 100 100" viewBox="0 0 100 100" xmlns="http://www.w3.org/2000/svg"><g id="Layer_1"/><g id="Layer_2"><g><path d="m90.473 2.525c-14.609-.041-68.493.028-80.946 0-3.876 0-7.02 3.048-7.02 6.803v81.37c0 3.756 3.145 6.801 7.02 6.801h80.946c3.878 0 7.02-3.046 7.02-6.802v-81.368c0-3.755-3.142-6.804-7.02-6.804z" fill="#0077b5"/><g fill="#f1f1f1"><path d="m53.453 82.007v-23.875c-.139-4.388 2.483-8.482 7.761-8.666 5.142 0 7.2 3.921 7.2 9.669v22.872h14.212v-24.517c0-13.133-7.011-19.244-16.362-19.244-7.667 0-11.034 4.285-12.905 7.203l.095-6.199h-14.213c.185 4.011-.001 42.758-.001 42.758z"/><path d="m31.372 63.466v-24.217h-14.213v42.758h14.215c-.004-4.49.005-14.116-.002-18.541z"/><path d="m24.268 33.412c4.956 0 8.041-3.283 8.041-7.386-.041-9.896-16.002-9.786-15.989-.001-.01 4.135 3.16 7.438 7.948 7.387z"/></g><g style="fill:none;stroke:#000;stroke-width:3;stroke-linecap:round;stroke-linejoin:round;stroke-miterlimit:10"><path d="m9.521 2.512c-3.876 0-7.021 3.049-7.021 6.804v-.001 81.383c0 3.756 3.145 6.802 7.021 6.802h80.958c3.878 0 7.021-3.046 7.021-6.803v-81.381c0-3.756-3.143-6.804-7.021-6.804-7.937-.038-65.164.027-71.501 0"/><path d="m31.37 63.461v-24.22h-14.216v42.764h14.217v-10.862m-7.106-37.74c4.956 0 8.042-3.284 8.042-7.388-.042-9.897-16.005-9.787-15.991 0-.011 4.135 3.16 7.439 7.949 7.388zm29.189 5.839h-14.215c.186 4.012-.001 42.764-.001 42.764l14.215-.001v-23.879c-.14-4.389 2.485-8.482 7.762-8.667 5.143 0 7.201 3.921 7.201 9.671v22.875h14.214v-24.52c0-13.135-7.012-19.247-16.365-19.247-7.668 0-11.036 4.285-12.907 7.204z"/></g></g></g></svg>