<svg id="Icons" height="512" viewBox="0 0 60 60" width="512" xmlns="http://www.w3.org/2000/svg"><g fill="none" stroke-linecap="round" stroke-linejoin="round"><path d="m6.33 16.626 3.179-1.836-8.463 6.773 11.732-6.773-11.748 8.271 14.327-8.272-14.327 10.318 17.872-10.318-17.872 11.595 20.084-11.596-20.084 13.549 23.468-13.549-23.468 15.22 26.363-15.22-26.363 16.773 29.054-16.774-29.054 18.703 32.395-18.703-32.395 20.897 36.196-20.898-36.196 22.79 39.474-22.79-39.474 24.466 42.376-24.466-42.376 26.745 46.326-26.746-46.326 28.993 50.074-28.91-50.074 30.223 51.114-29.511-51.114 30.838 52.166-30.118-52.166 31.805 53.502-30.889-53.502 32.12 54.477-31.452-54.477 33.307 55.947-32.3-55.947 33.708 57.024-32.923-57.024 34.57 57.788-33.364-57.787 35.156 57.939-33.451-57.531 34.931 57.531-33.216-56.632 34.158 56.632-32.696-54.179 33.206 54.179-31.28-51.224 31.28 51.224-29.574-47.334 29.574 47.334-27.328-44.816 27.328 44.816-25.874-41.342 25.874 41.342-23.869-37.519 23.869 37.519-21.661-33.83 21.661 33.83-19.532-30.806 19.532 30.806-17.786-26.92 17.786 26.92-15.542-24.06 15.542 24.06-13.891-20.904 13.891 20.904-12.069-17.615 12.069 17.615-10.17-14.065 10.17 14.065-8.12-11.723 8.12 11.723-6.768-9.263 6.768 9.263-5.348-6.131 5.348 6.131-3.54-2.626 3.517 2.049-1.183" stroke="#57b27c"/><path d="m9.317 1.989 1.659-.957-1.946 2.466 4.275-2.468-4.275 4.409 7.637-4.409-7.637 5.694 9.862-5.694-9.862 6.876 11.91-6.876-11.91 8.456 14.647-8.456-14.647 10.331 17.893-10.331-17.893 12.353 21.395-12.353-21.395 14.356 24.865-14.356-24.865 15.968 27.657-15.968-27.657 18.117 31.019-17.909-31.019 19.955 32.409-18.711-32.409 20.198 33.352-19.256-33.352 21.382 34.7-20.034-34.7 21.775 35.804-20.671-34.904 21.852 35.982-20.774-34.33 22.11 35.781-20.658-34.913 21.36 35.677-20.597-34.513 21.538 35.535-20.516-34.522 21.336 35.413-20.445-34.329 21.322 35.123-20.279-34.267 20.971 34.403-19.862-33.458 20.626 33.459-19.318-32.265 20.284 32.267-18.629-31.013 19.643 31.014-17.906-29.805 18.885 29.806-17.209-28.432 18.32 28.434-16.416-27.126 17.474 27.127-15.662-25.891 16.662 25.893-14.949-24.795 15.837 24.796-14.316-23.848 15.082 20.01-11.552-18.74 12.58 11.203-6.468-9.938 7.491 2.434-1.406" stroke="#dce5e3"/><path d="m57.136 21.442 1.548-.894-10.724 8.034 11.01-6.356-21.603 14.601 21.603-12.473" stroke="#52a06e"/><path d="m1.228 20.75.396-.228-.594 1.94 1.774-1.024-1.774 3.071 3.287-1.897-3.287 3.708 4.625-2.67-4.625 4.331 5.852-3.379-5.852 4.65 6.791-3.921-6.791 5.751 8.143-4.702-8.143 6.384 9.386-5.419-9.386 6.71 10.34-5.97-10.34 7.24 11.278-6.512-11.278 8.28 12.584-7.266-12.584 9.472 14.214-8.207-14.214 10.397 15.832-9.141-15.832 10.948 17.167-9.912-17.167 11.206 18.124-10.464-18.124 12.704 19.779-11.419-19.779 13.526 21.335-12.318-21.335 13.475 22.19-12.812-22.19 14.61 23.519-13.579-23.519 15.85 25.197-14.547-25.197 15.938 27.376-15.806-27.077 17.553 30.406-17.556-29.212 18.835 56.447-32.589-53.351 32.979 53.351-30.802-49.375 30.802 49.375-28.507-45.379 28.507 45.379-26.2-41.961 26.2 41.961-24.226-38.252 24.226 38.252-22.085-35.585 22.085 35.585-20.545-32.731 20.545 32.731-18.897-29.419 18.897 29.419-16.985-25.712 16.985 25.712-14.845-22.736 14.845 22.736-13.126-20.36 13.126 20.36-11.755-17.946 11.755 17.946-10.361-14.875 10.361 14.875-8.588-11.607 8.588 11.607-6.701-8.463 6.701 8.463-4.886-5.292 4.886 5.292-3.055-2.626 3.032 2.049-1.183" stroke="#52a06e"/><path d="m26.243 39.877 3.094-1.786-11.922 8.486 14.204-8.201-24.129 15.734 25.571-14.763-30.041 19.455 31.621-18.256-29.425 18.424 30.501-17.61-27.55 17.61 28.827-16.643-24.889 16.643 26.592-15.353-23.554 15.353 24.869-14.358-21.568 14.358 22.996-13.277-20.566 13.277 21.617-12.481-17.752 12.481 19.425-11.215-17.023 11.215 18.062-10.428-15.567 10.428 16.647-9.611-13.445 9.611 14.83-8.562-11.587 8.562 12.99-7.5-9.733 7.5 11.142-6.433-7.344 6.433 8.987-5.189-6.891 5.189 7.798-4.502-4.008 4.502 5.648-3.261-2.833 3.261 4.051-2.339-1.601 2.339 2.661-1.536-.611 1.511 1.479-.854" stroke="#468e63"/><path d="m40.03 1.52.252-.145-.252 2.147 1.553-.897-1.553 2.18 2.366-1.366-2.366 2.877 3.324-1.919-3.324 3.876 4.565-2.636-4.565 4.319 5.632-3.252-5.253 4.453 6.153-3.552-5.095 4.286 5.948-3.434-3.006 3.513 4.133-2.386-1.684 2.386 2.58-1.49.83 1.49.377-.217" stroke="#a9b7b3"/></g><path d="m1.305 58.419c1.75 1.479 5.294.97 7.437.969h45.058c8.338 1.128 5.436-7.559 5.93-12.731-.4-8.755.794-17.867-.451-26.456 0-.014 0-.026-.022-.035-1.841-2.577-5.16-3.721-7.519-5.643a6.971 6.971 0 0 0 -.245-2.613c.059-.08.037-.148-.069-.18-3.208-3.792-7.016-7.292-10.568-10.757-7.566-1.096-15.576-.065-23.286-.408-2.973.417-8.6-1.574-9.3 2.605-.024 3.861.017 7.728 0 11.591-2.322 1.739-5.083 3.139-7.156 5.148-.316.147-.539.407-.4.659-1.114 6.704-.114 13.932-.439 20.773 0 4.9-.158 9.826 0 14.722a3.039 3.039 0 0 0 1.03 2.356zm21.41-20.714 2.808 2.181-23.252 17.648c-1.228-3.516-.249-7.721-.547-11.441.072-8.21-.131-16.445.054-24.643zm32.834 20.907c-17.5-.463-35.444.9-52.733-.491 7.845-5.974 15.727-11.9 23.551-17.9.365-.06.728-.3.759-.572 2.243-2.349 4.725-.756 6.677 1l23.3 17.688a2.625 2.625 0 0 1 -1.554.275zm-4.529-31.978c.375-.069.731-.264.706-.548l6.321-4.908c.307 11.88.664 24.413-.109 36.235-7.832-5.977-15.723-11.868-23.52-17.889zm5.634-7.262a3.621 3.621 0 0 1 1.1 1.157l-6.027 4.679c0-3.07-.007-6.139.005-9.208 1.642 1.121 3.288 2.238 4.922 3.372zm-8.654-9.408a17.343 17.343 0 0 1 1.734 1.745c-10.352.043-9.029 1.292-9.012-9.023zm-38.247-7.371c.267-1.353 1.222-1.159 2.21-1.159 9.089.134 18.263-.256 27.313.132-.059 12.434-1.518 10.72 10.805 10.725a6.435 6.435 0 0 1 .235 2.537.126.126 0 0 0 -.006.183c-.075 3.774-.035 7.549-.026 11.316l-16.427 12.755a5.409 5.409 0 0 0 -7.215-.02l-16.916-13.134c.036-7.774-.064-15.577.027-23.335zm-6.532 16.622 5.053-3.461v9.046l-6-4.657a3.685 3.685 0 0 1 .947-.928z" fill="#262626"/><path d="m15.931 17.513h28c.814 0 1.124-1.026.138-1.026h-28c-.814 0-1.124 1.026-.138 1.026z" fill="#262626"/><path d="m40.221 23.332c16.321-.876-18.245-.687-20.442-.664h-3.479c-.444 0-1.569.664-.606.664z" fill="#262626"/><path d="m22.763 28.6h-2.478c-.532 0-1.543.8-.57.8h20c.532 0 1.543-.8.57-.8z" fill="#262626"/></svg>