<svg id="Icons" viewBox="0 0 60 60" xmlns="http://www.w3.org/2000/svg"><path d="m35.438 44.167c-.15 0-.299-.068-.396-.195-.152-.199-.135-.48.043-.658l1.274-1.277c-.08-.042-.15-.107-.199-.192-.139-.239-.057-.545.183-.683l2.158-1.246c.215-.125.494-.071.646.128s.135.48-.043.658l-.641.642 1.979-1.142c.238-.139.545-.058.683.183.139.239.057.545-.183.683l-5.254 3.033c-.078.046-.164.067-.25.067z" fill="#59c19f"/><path d="m39.462 59.398c-.166 0-.328-.083-.423-.233-.144-.228-.081-.527.14-.679l2.777-1.905-4.313 2.49c-.23.136-.528.062-.672-.164-.144-.227-.084-.525.136-.679l5.918-4.123-7.714 4.453c-.233.136-.529.062-.673-.166s-.081-.527.141-.679l6.957-4.766-8.566 4.945c-.232.136-.53.062-.674-.167-.143-.229-.079-.528.144-.68l7.398-5.013-8.828 5.097c-.23.135-.528.062-.672-.165-.144-.226-.084-.525.137-.678l9.019-6.274-10.617 6.13c-.235.136-.534.061-.675-.17-.143-.229-.076-.53.148-.68l5.484-3.63-6.42 3.706c-.236.139-.535.06-.677-.173-.142-.231-.071-.534.157-.681l1.106-.709-1.652.953c-.235.138-.533.06-.676-.17-.142-.23-.075-.531.15-.681l4.421-2.91-5.165 2.981c-.235.136-.533.061-.675-.169-.143-.229-.076-.531.148-.681l4.769-3.162-5.507 3.179c-.233.136-.529.062-.673-.166s-.081-.527.141-.679l6.672-4.569-7.595 4.385c-.23.134-.524.062-.67-.16-.145-.224-.089-.521.127-.678l1.925-1.394-2.464 1.422c-.228.134-.522.063-.668-.158s-.093-.517.119-.675l2.372-1.769-2.956 1.706c-.228.133-.521.063-.667-.156-.146-.221-.095-.517.115-.676l2.361-1.782-2.925 1.688c-.219.13-.507.068-.657-.143-.149-.21-.115-.499.08-.668l3.967-3.433-4.961 2.864c-.228.136-.522.064-.669-.159-.145-.223-.091-.52.123-.677l1.083-.794-1.417.817c-.227.136-.521.063-.668-.158-.146-.222-.093-.519.12-.676l1.236-.916-1.573.908c-.226.132-.518.064-.663-.151-.147-.217-.103-.51.103-.673l2.62-2.079-3.154 1.82c-.224.131-.512.066-.66-.147s-.108-.505.091-.67l3.15-2.608-3.782 2.184c-.22.13-.506.068-.656-.142-.15-.209-.116-.498.077-.667l3.684-3.223-4.448 2.568c-.223.131-.509.068-.658-.144-.149-.211-.113-.501.083-.669l3.55-3.038-4.21 2.43c-.225.132-.516.065-.662-.15-.148-.215-.104-.508.099-.672l2.902-2.336-3.347 1.932c-.228.135-.522.063-.669-.159-.145-.222-.091-.519.123-.676l1.046-.771-1.208.697c-.225.131-.513.065-.661-.147-.147-.214-.107-.505.093-.671l3.497-2.886-3.976 2.295c-.225.132-.513.066-.661-.148s-.107-.506.094-.671l3.652-2.997-4.092 2.362c-.225.132-.513.065-.661-.148s-.107-.506.095-.671l3.907-3.198-4.313 2.49c-.227.133-.518.064-.665-.153-.146-.219-.1-.513.108-.674l3.413-2.652-3.659 2.112c-.227.136-.523.063-.669-.159-.145-.223-.091-.52.123-.677l2.996-2.194-3.117 1.8c-.232.137-.53.062-.674-.167-.143-.229-.079-.528.144-.68l3.54-2.398-3.595 2.075c-.234.135-.531.06-.674-.168s-.079-.528.145-.679l3.824-2.583-3.847 2.221c-.229.134-.525.062-.67-.16-.145-.224-.089-.521.127-.678l7.701-5.578-7.903 4.562c-.235.138-.534.06-.676-.171s-.074-.533.153-.681l.327-.214-.144.083c-.23.135-.527.062-.671-.163-.145-.225-.086-.523.132-.678l6.858-4.852-6.832 3.944c-.233.135-.528.062-.672-.164-.144-.227-.084-.525.136-.679l6.08-4.238-5.924 3.42c-.233.137-.529.062-.673-.166s-.081-.527.14-.679l4.984-3.418-4.693 2.709c-.23.135-.528.062-.672-.165-.144-.226-.084-.525.137-.678l5.586-3.885-5.199 3.001c-.233.136-.53.062-.674-.167-.143-.228-.08-.527.143-.679l3.979-2.711-3.45 1.991c-.235.136-.533.062-.675-.169-.143-.23-.076-.531.148-.681l1.062-.703-.445.257c-.229.134-.522.064-.667-.157-.146-.221-.095-.517.117-.676l6.186-4.634-5.148 2.972c-.232.135-.528.062-.672-.164s-.084-.525.136-.679l1.113-.778c-.22.128-.5.068-.652-.138-.15-.206-.123-.492.065-.664l2.397-2.2c-.17-.002-.335-.092-.426-.25-.139-.239-.057-.545.183-.683l3.446-1.989c.219-.127.501-.07.653.137.15.206.123.492-.065.664l-2.157 1.979 6.056-3.496c.229-.135.528-.062.672.164s.084.525-.136.679l-1.122.784 2.401-1.386c.227-.134.521-.065.667.157.146.221.095.517-.117.676l-6.186 4.634 7.268-4.195c.233-.136.533-.062.675.169.143.23.076.531-.148.681l-1.058.7.992-.572c.235-.135.531-.062.674.167.143.228.08.527-.143.679l-3.978 2.711 3.884-2.242c.232-.135.528-.063.672.165.144.226.084.525-.137.678l-5.585 3.885 5.557-3.208c.234-.135.53-.061.673.166.144.228.081.527-.14.679l-4.983 3.417 4.924-2.842c.229-.135.528-.062.672.164s.084.525-.136.679l-6.08 4.238 6.069-3.504c.229-.136.527-.062.671.163.145.225.086.523-.132.678l-6.857 4.851 6.89-3.978c.235-.136.534-.06.676.171s.074.533-.153.681l-.344.224.15-.086c.229-.135.524-.062.67.16.145.224.089.521-.127.678l-7.702 5.578 7.786-4.494c.234-.137.53-.061.674.168.143.228.079.528-.145.679l-3.824 2.583 3.329-1.922c.233-.135.531-.062.674.167s.079.528-.144.68l-4.257 2.884c.185.003.33.078.428.227.145.223.091.52-.124.677l-2.992 2.191 1.995-1.151c.227-.134.518-.063.665.153.146.219.1.513-.108.674l-3.413 2.652 3.324-1.919c.224-.132.514-.065.661.148.148.214.107.506-.095.671l-3.908 3.199 4.05-2.338c.225-.132.513-.066.661.148s.107.506-.094.671l-3.65 2.995 3.886-2.243c.224-.131.513-.065.661.147.147.214.107.505-.093.671l-3.5 2.889 3.83-2.211c.229-.134.523-.063.669.159.145.222.091.519-.123.676l-1.042.768 1.137-.656c.225-.133.516-.065.662.15.148.215.104.508-.099.672l-2.904 2.338 3.287-1.897c.223-.13.51-.066.658.144.149.211.113.501-.083.669l-3.548 3.037 4.191-2.42c.221-.128.507-.068.656.142.15.209.116.498-.077.667l-3.684 3.222 4.5-2.598c.223-.132.512-.067.66.147.148.213.109.505-.091.67l-3.154 2.611 3.884-2.241c.225-.134.516-.066.663.151s.103.51-.103.673l-2.616 2.076 3.299-1.904c.229-.134.522-.062.668.158.146.222.093.519-.12.676l-1.241.92 1.73-.999c.229-.133.523-.063.669.159.145.223.091.52-.123.677l-1.076.789 1.598-.922c.221-.129.508-.067.657.143s.115.499-.08.668l-3.966 3.432 5.398-3.117c.227-.134.521-.064.667.156.146.221.095.517-.115.676l-2.367 1.787 3.329-1.922c.229-.133.522-.062.668.158s.093.517-.119.675l-2.368 1.766 3.451-1.992c.229-.135.524-.062.67.16.145.224.089.521-.127.678l-1.926 1.395 10.48-6.051c.234-.135.53-.061.673.166.144.228.081.527-.141.679l-6.674 4.57 8.194-4.73c.234-.138.533-.061.675.169.143.229.076.531-.148.681l-4.771 3.164 5.961-3.441c.235-.137.533-.06.676.17.142.23.075.531-.15.681l-4.421 2.91 5.556-3.207c.237-.137.536-.059.677.173.142.231.071.534-.157.681l-1.116.716 1.942-1.121c.233-.138.533-.062.675.17.143.229.076.53-.148.68l-5.479 3.626 6.729-3.884c.229-.136.528-.062.672.165.144.226.084.525-.137.678l-9.021 6.275 10.593-6.115c.233-.135.531-.062.674.167s.079.528-.144.68l-7.395 5.01 7.768-4.484c.235-.135.529-.062.673.166s.081.527-.141.679l-6.958 4.767 6.656-3.843c.229-.136.528-.062.672.164s.084.525-.136.679l-5.916 4.122 5.271-3.043c.232-.134.529-.061.673.166.144.228.081.527-.14.679l-2.776 1.904 1.912-1.104c.226-.131.516-.066.662.149.147.216.105.509-.099.673l-4.266 3.438 2.672-1.542c.239-.14.546-.058.683.183.139.239.057.545-.183.683l-8.251 4.764c-.225.132-.516.065-.662-.149-.147-.216-.105-.509.099-.673l4.264-3.438-7.482 4.32c-.078.046-.165.067-.25.067z" fill="#59c19f"/><path d="m57.028 32.468c-.142 0-.281-.061-.379-.174-.157-.183-.162-.451-.012-.639l.272-.34-.985.568c-.217.126-.496.07-.647-.13-.153-.2-.133-.482.047-.659l.443-.437-.425.245c-.208.121-.476.075-.632-.109s-.158-.455-.004-.642l1.844-2.232-1.338.771c-.214.125-.488.073-.644-.124-.153-.195-.14-.474.032-.653l1.093-1.146-.639.368c-.213.125-.488.072-.643-.123s-.141-.474.03-.654l.963-1.013-.584.337c-.216.126-.495.071-.648-.131-.152-.201-.131-.483.05-.66l.418-.408-.072.042c-.212.123-.483.074-.64-.119-.154-.191-.146-.468.02-.649l.948-1.044-.709.409c-.208.121-.475.074-.631-.108-.156-.185-.159-.454-.006-.641l1.175-1.437-1.077.622c-.202.119-.462.078-.619-.096-.158-.174-.175-.435-.039-.626l1.345-1.897-1.445.834c-.217.126-.496.07-.648-.131s-.131-.483.049-.659l.109-.106c-.21.101-.468.044-.614-.146-.152-.199-.135-.48.042-.657l.232-.233-.145.083c-.212.123-.483.073-.638-.117s-.148-.466.015-.648l.658-.735-.706.407c-.209.122-.475.075-.633-.11-.155-.186-.156-.456 0-.643l.823-.989-.994.574c-.213.124-.484.073-.639-.118s-.147-.467.018-.649l.564-.626-.705.406c-.208.121-.476.074-.631-.109-.156-.184-.159-.453-.006-.641l.798-.972-1.096.632c-.199.118-.453.079-.612-.088-.159-.168-.183-.422-.058-.616l1.072-1.657-1.743 1.006c-.209.122-.474.075-.632-.109-.156-.185-.158-.454-.004-.641l.754-.917-1.206.696c-.202.118-.457.08-.616-.093-.159-.17-.179-.429-.047-.621l.995-1.464-1.799 1.039c-.214.126-.493.071-.646-.127-.152-.199-.135-.479.042-.658l.171-.173-.522.302c-.209.122-.475.076-.631-.108s-.159-.453-.007-.64l.787-.967-1.523.879c-.202.119-.461.079-.619-.096-.158-.173-.175-.434-.039-.625l.969-1.373-2.065 1.191c-.203.12-.465.078-.623-.1-.157-.176-.17-.438-.029-.629l.959-1.305-2.17 1.253c-.213.126-.487.073-.642-.122-.154-.193-.143-.472.026-.652l.584-.624-1.531.884c-.202.119-.462.078-.62-.097-.158-.174-.174-.435-.037-.626l1.064-1.497-2.831 1.634c-.205.122-.471.077-.628-.105-.157-.181-.163-.447-.016-.636l1.094-1.392-3.084 1.78c-.214.127-.493.072-.646-.128-.152-.198-.135-.479.042-.657l.836-.843-2.608 1.506c-.204.12-.464.077-.622-.099-.157-.176-.171-.438-.032-.629l1.382-1.895-2.252 1.299c-.202.118-.461.078-.62-.097-.158-.174-.174-.435-.037-.626l.597-.836h-.003c-.173 0-.341-.09-.433-.25-.139-.239-.057-.545.183-.683l1.656-.956c.202-.118.461-.078.62.097.158.174.174.435.037.626l-.505.707 2.301-1.327c.203-.119.464-.078.622.099.157.176.171.438.032.629l-1.381 1.895 3.806-2.197c.215-.126.493-.071.646.128.152.198.135.479-.042.657l-.836.843 2.087-1.205c.206-.12.472-.076.628.105.157.181.163.447.016.636l-1.095 1.393 2.574-1.485c.202-.119.461-.078.62.096.158.175.174.436.037.627l-1.064 1.497 2.459-1.419c.214-.125.488-.074.642.122.154.193.143.472-.026.652l-.583.622 1.322-.763c.205-.12.466-.077.623.1.157.176.17.438.029.629l-.959 1.305 1.966-1.135c.202-.119.461-.079.619.096.158.173.175.434.039.625l-.969 1.374 1.907-1.101c.207-.123.475-.076.631.108s.159.453.007.64l-.786.966 1.409-.813c.216-.126.493-.07.646.127.152.199.135.479-.042.658l-.17.171.451-.26c.201-.118.457-.08.616.093.159.17.179.429.047.621l-.995 1.464 1.703-.983c.207-.123.474-.075.632.109.156.185.158.454.004.641l-.755.918 1.15-.664c.201-.117.453-.078.612.088.159.168.183.422.058.616l-1.072 1.657 1.677-.968c.207-.123.474-.075.631.109.156.184.159.453.006.641l-.798.973 1.066-.615c.21-.125.482-.074.639.118.154.191.147.467-.018.649l-.562.624.684-.395c.208-.122.476-.075.633.11.155.186.156.456 0 .643l-.824.99.983-.567c.211-.124.482-.074.638.117.155.19.148.466-.015.648l-.659.736.705-.406c.216-.125.493-.071.646.128.152.199.135.48-.042.657l-.231.232.147-.085c.215-.128.495-.072.648.131.152.201.131.483-.049.659l-.107.105c.198-.101.443-.056.594.109.159.174.175.435.039.626l-1.344 1.896 1.469-.848c.208-.123.474-.075.631.108.156.185.159.454.006.641l-1.175 1.436 1.112-.642c.211-.125.483-.075.64.119.154.191.146.468-.02.649l-.948 1.044.759-.438c.216-.127.495-.072.648.131.152.201.131.483-.05.66l-.42.409.121-.069c.213-.125.488-.073.643.123.154.195.141.474-.03.654l-.963 1.013.655-.378c.214-.125.487-.073.644.124.153.195.14.474-.032.653l-1.093 1.146.725-.418c.207-.122.475-.076.632.109.156.185.158.455.004.642l-1.843 2.231 1.42-.819c.215-.127.494-.071.647.13.153.2.133.482-.047.659l-.47.463c.189-.069.407-.013.544.146.157.183.162.451.012.639l-.53.662c.121.034.229.114.297.231.139.239.057.545-.183.683l-1.655.956c-.078.046-.164.067-.25.067z" fill="#46a0dd"/><path d="m47.028 32.468c-.129 0-.258-.05-.354-.146-.16-.16-.192-.408-.079-.604l.955-1.647-2.08 1.2c-.21.123-.479.075-.635-.113s-.153-.461.006-.646l1.559-1.812-1.159.669c-.218.128-.499.071-.651-.135-.151-.203-.126-.488.059-.662l.369-.347c-.187.064-.4.012-.537-.144-.157-.18-.166-.445-.021-.635l1.528-1.994-1.317.761c-.21.124-.48.074-.637-.115-.155-.189-.15-.463.011-.646l.964-1.101-.821.474c-.21.124-.481.074-.637-.115s-.15-.464.011-.647l.831-.945-.78.45c-.214.128-.492.072-.646-.128-.152-.198-.135-.479.042-.657l.229-.23-.149.086c-.213.125-.486.073-.641-.12s-.145-.47.023-.651l.524-.568-.579.334c-.198.117-.45.081-.611-.087-.159-.166-.185-.42-.061-.614l1.143-1.799-1.72.993c-.214.126-.49.072-.644-.124s-.14-.476.033-.655l.289-.301-.489.282c-.199.116-.452.081-.611-.087-.159-.166-.185-.42-.061-.614l1.042-1.636-1.913 1.104c-.214.126-.49.071-.644-.124-.153-.196-.14-.476.033-.655l.304-.315-.738.426c-.207.121-.471.076-.629-.105-.156-.182-.162-.449-.013-.638l.837-1.057-1.757 1.014c-.208.123-.478.074-.633-.111-.156-.187-.156-.457 0-.644l.789-.937-1.863 1.075c-.204.12-.466.077-.622-.1-.158-.176-.171-.438-.03-.629l1.035-1.407-2.826 1.631c-.205.121-.469.076-.627-.104-.157-.181-.164-.447-.018-.636l1.153-1.479-3.243 1.871c-.209.122-.476.075-.632-.109s-.158-.455-.004-.642l1.202-1.457-1.557.898c-.205.122-.47.077-.628-.105-.157-.182-.163-.448-.015-.637l.508-.644c-.128-.031-.244-.112-.314-.235-.139-.239-.057-.545.183-.683l1.656-.956c.206-.12.471-.076.628.105s.163.448.015.637l-.274.349 1.697-.98c.207-.123.475-.075.632.109.156.185.158.455.004.642l-1.204 1.459 3.066-1.77c.206-.12.47-.076.627.104s.164.447.018.636l-1.152 1.479 2.673-1.543c.205-.119.465-.077.623.1.157.176.17.438.029.629l-1.034 1.407 2.261-1.306c.209-.123.477-.074.633.111.156.187.156.457 0 .644l-.79.938 1.562-.9c.206-.122.471-.077.629.105.156.182.162.449.013.638l-.837 1.057 1.533-.885c.215-.126.489-.071.644.124.153.196.14.476-.033.655l-.303.314.618-.356c.198-.117.451-.081.611.087.159.166.185.42.061.614l-1.042 1.635 1.771-1.022c.214-.126.49-.072.644.124s.14.476-.033.655l-.29.302.434-.25c.199-.116.45-.08.611.087.159.166.185.42.061.614l-1.144 1.799 1.663-.959c.212-.124.485-.072.641.12.154.193.145.47-.023.651l-.522.566.561-.323c.215-.125.494-.071.646.128.152.198.135.479-.042.657l-.23.231.151-.087c.21-.124.481-.074.637.115s.15.464-.011.647l-.831.945.808-.466c.21-.123.479-.074.637.115.155.189.15.463-.011.646l-.963 1.1.873-.504c.204-.121.468-.078.626.103.157.18.166.445.021.634l-1.529 1.995 1.439-.83c.218-.127.499-.07.651.135.151.203.126.488-.059.662l-.341.32c.205-.104.46-.055.61.127.156.188.153.461-.006.646l-1.561 1.814 1.156-.667c.195-.115.444-.081.604.079s.192.408.079.604l-.954 1.646.033-.019c.238-.14.545-.057.683.183.139.239.057.545-.183.683l-1.655.956c-.078.046-.164.067-.25.067z" fill="#46a0dd"/><path d="m37.028 32.468c-.132 0-.262-.052-.359-.152-.159-.164-.187-.416-.065-.61l.825-1.335-1.862 1.075c-.205.119-.469.077-.626-.103s-.166-.444-.021-.634l1.591-2.078-1.341.774c-.21.122-.479.075-.635-.113-.155-.188-.153-.46.006-.646l.981-1.143-.874.504c-.205.122-.469.076-.627-.104-.157-.181-.165-.446-.019-.636l.968-1.247-1.289.744c-.196.116-.447.08-.607-.083s-.188-.414-.07-.609l1.056-1.738-2.275 1.313c-.202.119-.458.079-.616-.093-.159-.171-.179-.429-.047-.622l1.037-1.518-2.932 1.692c-.21.123-.479.075-.635-.113-.155-.188-.153-.46.006-.646l1.035-1.206-1.292.746c-.205.122-.47.076-.627-.104-.157-.181-.165-.447-.018-.636l.521-.672c-.136-.027-.26-.111-.334-.24-.139-.239-.057-.545.183-.683l1.656-.956c.206-.12.47-.075.627.104.157.181.165.447.018.636l-.318.41 1.625-.938c.209-.123.479-.075.635.113.155.188.153.46-.006.646l-1.035 1.205 2.291-1.322c.201-.118.458-.08.616.093.159.171.179.429.047.622l-1.036 1.518 2.064-1.192c.197-.116.447-.081.607.083.16.163.188.414.07.609l-1.057 1.739 1.808-1.043c.207-.12.471-.076.627.104.157.181.165.447.019.636l-.968 1.247 1.206-.696c.209-.123.479-.075.635.113.155.188.153.46-.006.646l-.979 1.141.97-.56c.204-.121.468-.078.626.103.157.18.166.444.021.634l-1.591 2.078 1.413-.815c.197-.116.448-.082.609.085.159.164.187.416.065.61l-.83 1.343c.225-.094.495-.006.621.213.139.239.057.545-.183.683l-1.655.956c-.078.046-.164.067-.25.067z" fill="#46a0dd"/><g fill="#262626"><path d="m20.434 51.144c8.1 6.375 21.761 12.734 30.663 4.584 2.313-2.824 4.46-9.382.753-11.918-4.438-1.257-10.122-4.92-14.629-3.479-3.208 2.602-2.013 5.621-7.306 2.753-4.548-1.566-17.649-13.964-12.609-18.456 6.583-2.743.461-10.242-.326-14.959-3.364-6.977-14.837-1.719-16.054 4.599-3.307 14.809 8.831 28.221 19.508 36.876zm-18.567-34.515c.157-6.007 6.641-10.965 12.346-8.604 1.352 1.055 5.462 12.63 4.495 14.143-1.571 2.153-5.35 2.466-3.965 6.108 1.035 6.136 15.994 22.226 21.608 15.027.848-2.326 2.762-3.08 5.012-1.87 3.493 1.937 10.643 1.321 10.902 6.364.171 15.334-19.439 11.327-27.551 4.818-11.482-8.147-23.772-20.905-22.847-35.986z"/><path d="m55.916 15.429c-4.926-8.788-14.541-14.657-24.618-14.959-1.417-.055-2.9.007-3.69 1.384-3.345 7.373 18.413-1.341 25.633 21.217 1.692 2.913-.743 9.064 3.701 9.486 6.228-1.061.817-13.648-1.026-17.127zm1.207 16.001c-1.818-.256-1.381-2.679-1.517-4.069-.416-4.335-2.01-8.543-4.525-12.095-4.118-5.855-10.761-9.824-17.876-10.64-1.317-.156-4.017.308-4.416-1.341-.58-2.393 3.111-1.688 4.442-1.528 12.5 1.345 23.127 11.832 24.748 24.282.186 1.289 1.049 5.145-.856 5.393z"/><path d="m43.811 26.484c.416 1.335.343 2.756.509 4.112.515 2.287 3.855 2.282 5.009.532 1.749-7.871-4.533-16.307-11.751-19.139-2.886-1.121-11.154-3.369-10.088 2.099.451.947 1.392 1.282 2.374 1.319 6.476 0 12.422 4.812 13.947 11.077zm-12.94-11.878c-1.278.175-2.462-.921-2.076-2.23.386-1.354 2.012-.975 3.096-.844 7.234.808 13.591 6.279 15.601 13.254.385 1.295 1.819 6.467-.284 6.794-2.364-.544-1.132-3.768-1.948-5.484-1.578-6.479-7.741-11.34-14.389-11.49z"/><path d="m34.345 21.482c-1.945-.9-5.758-1.773-6.883.769-.512 1.157.081 2.505 1.247 2.963 1.194.307 2.532.161 3.556 1.025 2.713 1.303.923 5.89 4.251 6.14 6.579-.481 1.811-9.635-2.172-10.897zm3.883 9.05c-.163 1.199-1.531 1.365-2.152.391-.628-1.386-.297-3.12-1.49-4.313-1.221-1.938-3.603-1.591-5.327-2.476-2.941-6.542 10.526-.496 8.969 6.398z"/></g></svg>