<svg id="Icons" height="512" viewBox="0 0 60 60" width="512" xmlns="http://www.w3.org/2000/svg"><path d="m30.831 59.455a.5.5 0 0 1 -.333-.873l.727-.647-1.239.714a.5.5 0 0 1 -.566-.819l4.113-3.366-4.877 2.814a.5.5 0 0 1 -.542-.839l4.4-3.168-4.931 2.846a.5.5 0 0 1 -.531-.846l4.018-2.731-4.405 2.543a.5.5 0 0 1 -.523-.852l1.669-1.085-1.875 1.084a.5.5 0 0 1 -.532-.846l8.533-5.794-9.137 5.274a.5.5 0 0 1 -.521-.853l4.443-2.857-4.712 2.722a.5.5 0 0 1 -.522-.853l6.926-4.471-7.275 4.2a.5.5 0 0 1 -.517-.856l3.9-2.463-4.1 2.367a.5.5 0 0 1 -.514-.858l.053-.033-.132.076a.5.5 0 0 1 -.518-.854l7.657-4.858-7.938 4.582a.5.5 0 0 1 -.513-.855l8.751-5.547-9.039 5.218a.5.5 0 0 1 -.516-.856l8.079-5.082-8.307 4.8a.5.5 0 0 1 -.512-.858l2.075-1.279-2.136 1.232a.5.5 0 0 1 -.522-.853l16.01-10.384-16.5 9.528a.5.5 0 0 1 -.52-.854l14.588-9.321-14.94 8.625a.5.5 0 0 1 -.51-.859l.451-.277-.421.244a.5.5 0 0 1 -.519-.855l15.319-9.768-15.619 9.013a.5.5 0 0 1 -.515-.856l12.146-7.627-12.28 7.09a.5.5 0 0 1 -.518-.855l15.479-9.848-15.674 9.05a.5.5 0 0 1 -.513-.857l8.035-4.979-8 4.619a.5.5 0 0 1 -.519-.854l15.23-9.677-15.32 8.844a.5.5 0 0 1 -.515-.856l11.245-7.04-11.186 6.458a.5.5 0 0 1 -.515-.855l12.088-7.6-12 6.927a.5.5 0 0 1 -.512-.858l5.692-3.516-5.47 3.157a.5.5 0 0 1 -.514-.857l8.029-5-7.792 4.5a.5.5 0 0 1 -.519-.855l13.732-8.763-13.5 7.8a.5.5 0 0 1 -.513-.859l3.232-2-2.855 1.65a.5.5 0 0 1 -.521-.853l13.714-8.859-13.318 7.691a.5.5 0 0 1 -.521-.852l12.148-7.847-11.554 6.67a.5.5 0 0 1 -.513-.858l.636-.394a.5.5 0 0 1 -.5-.864l9.26-6-8.338 4.821a.5.5 0 0 1 -.525-.851l8.56-5.62-7.345 4.24a.5.5 0 0 1 -.526-.849l6.476-4.29-4.952 2.855a.5.5 0 0 1 -.542-.839l6.932-4.976-4.242 2.448a.5.5 0 0 1 -.548-.834l3.281-2.434a.485.485 0 0 1 -.2-.191.5.5 0 0 1 .182-.683l5.414-3.126a.5.5 0 0 1 .548.834l-1.63 1.211 5.425-3.131a.5.5 0 0 1 .542.838l-6.934 4.978 10.291-5.94a.5.5 0 0 1 .527.849l-6.475 4.289 8.359-4.825a.5.5 0 0 1 .524.851l-8.561 5.62 10.246-5.914a.5.5 0 0 1 .521.852l-9.254 5.991 10.638-6.141a.5.5 0 0 1 .514.857l-.625.387 1.238-.714a.5.5 0 0 1 .521.853l-12.144 7.844 13.355-7.711a.5.5 0 0 1 .522.853l-13.727 8.864 14.825-8.558a.5.5 0 0 1 .513.858l-3.217 1.985 3.613-2.085a.5.5 0 0 1 .518.855l-13.726 8.761 14.488-8.366a.5.5 0 0 1 .514.858l-8.041 5 8.413-4.857a.5.5 0 0 1 .512.859l-5.686 3.512 5.915-3.415a.5.5 0 0 1 .515.856l-12.087 7.6 12.425-7.173a.5.5 0 0 1 .52.86l-11.251 7.039 11.451-6.611a.5.5 0 0 1 .519.854l-15.238 9.683 15.464-8.928a.5.5 0 0 1 .514.858l-8.025 4.971 7.964-4.6a.5.5 0 0 1 .519.854l-15.486 9.854 15.469-8.933a.5.5 0 0 1 .516.856l-12.152 7.63 11.936-6.887a.5.5 0 0 1 .519.854l-15.319 9.765 14.989-8.654a.5.5 0 0 1 .511.86l-.461.282a.5.5 0 0 1 .492.868l-14.592 9.326 13.986-8.074a.5.5 0 0 1 .522.853l-16 10.379 15.209-8.781a.5.5 0 0 1 .512.859l-2.085 1.283 1.337-.772a.5.5 0 0 1 .517.856l-8.076 5.081 7.171-4.141a.5.5 0 0 1 .518.855l-8.756 5.55 7.723-4.458a.5.5 0 0 1 .517.854l-7.657 4.859 6.513-3.76a.5.5 0 0 1 .514.857l-.883.548a.5.5 0 0 1 .349.916l-3.911 2.468 2.674-1.543a.5.5 0 0 1 .521.852l-6.923 4.471 5.4-3.119a.5.5 0 0 1 .521.854l-4.44 2.853 2.9-1.671a.5.5 0 0 1 .531.847l-8.533 5.793 6.308-3.643a.5.5 0 0 1 .523.852l-1.715 1.116a.5.5 0 0 1 .485.869l-4.023 2.734 1.765-1.018a.5.5 0 0 1 .542.839l-4.4 3.169 1.564-.9a.5.5 0 0 1 .567.82l-4.115 3.362.142-.082a.5.5 0 0 1 .583.806l-2.667 2.375a.5.5 0 0 1 -.2.66l-1.593.919a.491.491 0 0 1 -.245.067z" fill="#f74850"/><path d="m31.562 36.451a.5.5 0 0 1 -.3-.9l6.266-4.609-9.017 5.206a.5.5 0 0 1 -.537-.842l7.792-5.425-9.7 5.6a.5.5 0 0 1 -.524-.851l5.295-3.469-6.324 3.651a.5.5 0 0 1 -.53-.848l9.435-6.338-10.65 6.149a.5.5 0 0 1 -.525-.851l8.927-5.877-9.789 5.651a.5.5 0 0 1 -.524-.851l9.043-5.912-9.694 5.6a.5.5 0 0 1 -.521-.852l8.159-5.283-8.6 4.964a.5.5 0 0 1 -.526-.849l11.562-7.675-12.056 6.96a.5.5 0 0 1 -.515-.857l1.161-.726-1.13.652a.5.5 0 0 1 -.527-.849l11.65-7.758-11.835 6.838a.5.5 0 0 1 -.518-.855l5.344-3.409-5.18 2.991a.5.5 0 0 1 -.528-.848l10.184-6.779-9.965 5.753a.5.5 0 0 1 -.516-.855l.408-.257a.5.5 0 0 1 -.481-.875l.424-.266a.5.5 0 0 1 -.411-.9l2.177-1.395-1.527.882a.5.5 0 0 1 -.521-.853l1.237-.794-.444.255a.5.5 0 0 1 -.526-.849l3.274-2.166-2.213 1.277a.5.5 0 0 1 -.55-.832l6.221-4.671-4.017 2.322a.5.5 0 0 1 -.554-.83l2.743-2.111a.5.5 0 0 1 -.021-.877l4.677-2.7a.5.5 0 0 1 .555.829l-1.364 1.05 4.664-2.692a.5.5 0 0 1 .549.832l-6.219 4.669 9.255-5.346a.5.5 0 0 1 .525.849l-3.277 2.171 4.531-2.615a.5.5 0 0 1 .52.854l-1.252.8 2.068-1.191a.5.5 0 0 1 .519.853l-2.17 1.391 2.908-1.678a.5.5 0 0 1 .516.856l-.108.068.606-.349a.5.5 0 0 1 .517.855l-.381.24.807-.466a.5.5 0 0 1 .527.849l-10.187 6.776 11.12-6.42a.5.5 0 0 1 .518.854l-5.336 3.4 5.744-3.313a.5.5 0 0 1 .528.849l-11.65 7.758 12.306-7.1a.5.5 0 0 1 .515.856l-1.183.74 1.234-.712a.5.5 0 0 1 .527.849l-11.553 7.664 11.876-6.853a.5.5 0 0 1 .522.852l-8.16 5.277 8.162-4.711a.5.5 0 0 1 .523.851l-9.047 5.913 8.938-5.159a.5.5 0 0 1 .525.851l-8.922 5.873 8.63-4.982a.5.5 0 0 1 .529.848l-9.44 6.342 8.931-5.156a.5.5 0 0 1 .525.85l-5.292 3.467 4.573-2.64a.5.5 0 0 1 .536.843l-7.786 5.421 6.621-3.822a.5.5 0 0 1 .546.835l-6.267 4.608 4.274-2.467a.5.5 0 0 1 .561.824l-3.157 2.521a.5.5 0 0 1 .162.925l-4.8 2.773a.5.5 0 0 1 -.562-.823l2.542-2.03-6.352 3.667a.491.491 0 0 1 -.253.065z" fill="#dfedef"/><g fill="#262626"><path d="m31.607.68c-30.651 2.451-22.694 36.767-7.171 52.741 2.229 1.883 4.133 6.858 7.575 5.55 17.403-14.318 33.446-54.507-.404-58.291zm.678 56.9c-1.384 2.973-4.354-2.812-5.8-3.858-7.385-8.647-13.885-19.312-14.715-30.902 3.901-44.162 69.144-14.933 20.515 34.764z"/><path d="m27.86 6.032c-15.233 2.608-16.882 25.419-1.808 29.634 25.389 6.239 28.058-33.594 1.808-29.634zm15.482 22.462c-6.895 12.926-27.072 6.49-26.617-7.689 1.669-24.787 37.349-13.87 26.617 7.689z"/></g></svg>